<svg width="231" height="242" fill="none" xmlns="http://www.w3.org/2000/svg"><path d="M103.8 2.8c-2.133 2.133-1.867 3.467 1.467 7.467 1.733 2 1.333 2.266-4.534 3.066C66.067 18.133 34.6 39.067 16.6 69.067c-26.267 43.866-19.6 100 16.267 138 8.8 9.333 21.2 18 34.533 24.266 17.733 8.267 25.6 9.867 47.6 10 21.733 0 28.133-1.2 45.333-8.533 38-16.267 64-50.533 69.467-91.6 1.6-12.267 1.067-17.2-2.133-18.4-4.4-1.6-5.734.533-6.667 10.933-3.067 32.667-16.933 58.267-42 77.6-31.333 24.267-80.667 27.867-114.533 8.4-25.467-14.666-43.2-37.2-51.067-65.066-4.267-15.2-4.267-39.734 0-54.4 8-27.734 24.8-49.867 48.4-63.734 18.667-10.8 56.8-20 42.267-10.133-2.534 1.6-2.8 2.4-1.6 4.533 2.666 4.267 5.866 3.467 16-4.266 9.6-7.467 10.8-9.067 8.8-12.134-.934-1.466-19.467-13.866-20.8-13.866-.267 0-1.6.933-2.667 2.133zm46.133 16.8c-2.266 2.267-2 7.067.4 9.067 1.6 1.333 2.8 1.333 5.334.266C161 26.4 159.533 18 153.667 18c-1.2 0-2.8.667-3.734 1.6zm24 13.333c-3.6 3.6-.8 9.067 4.534 9.067 4.4 0 6.533-3.333 4.8-7.333-1.734-3.6-6.534-4.534-9.334-1.734zM195 51.867c-.8 1.066-1.333 3.333-1.067 5.066C194.2 59.467 195.133 60 199 60s4.8-.533 5.067-3.067C204.6 53.2 202.2 50 199 50c-1.333 0-3.067.933-4 1.867zm14.933 21.066c-4.4 4.4.8 12.134 6.267 9.2 3.6-2 4.267-4.666 2-8-2.267-3.066-5.867-3.6-8.267-1.2z" fill="#6C43BC"/><path d="M146.6 91.6l-19.733 6.667 6.4 4.266c3.466 2.267 6.4 4.534 6.4 5.067 0 .933-17.867 19.733-18.8 19.733-.4 0-6-3.6-12.534-8.133-6.533-4.533-12.4-7.733-13.066-7.333-1.067.666-27.467 30.933-35.734 40.8-1.333 1.733-.533 2.933 4.8 7.6l6.267 5.6 12.533-14.134c6.934-7.866 13.2-15.066 14-16.133 1.2-1.6 3.467-.533 13.867 6.4l12.533 8.4 16.134-16.8 16-16.8 7.333 4.533c4 2.4 7.467 4.4 7.6 4.267.133-.267-.267-7.6-.933-16.267-.667-8.8-1.334-18-1.334-20.4 0-2.266-.4-4.266-.933-4.133-.667 0-10 3.067-20.8 6.8zm71.067 5.733c-1.334 1.6-1.334 2.8-.267 5.334 1.867 4.133 7.467 4.533 9.6.666 3.2-5.866-5.067-11.066-9.333-6z" fill="#6C43BC"/></svg>