<svg width="18" height="19" fill="none" xmlns="http://www.w3.org/2000/svg"><path d="M17.95 5.324a6.531 6.531 0 00-.419-2.216A4.612 4.612 0 0014.898.475a6.606 6.606 0 00-2.186-.42C11.75.012 11.445 0 9.003 0s-2.755 0-3.71.055a6.606 6.606 0 00-2.185.42A4.607 4.607 0 00.475 3.108a6.554 6.554 0 00-.419 2.185C.013 6.256 0 6.561 0 9.003s0 2.754.056 3.71c.015.748.156 1.486.419 2.187a4.61 4.61 0 002.634 2.632 6.583 6.583 0 002.185.45c.963.043 1.268.056 3.71.056s2.755 0 3.71-.056a6.59 6.59 0 002.186-.419 4.613 4.613 0 002.633-2.633c.263-.7.404-1.438.419-2.187.043-.962.056-1.267.056-3.71-.002-2.442-.002-2.752-.058-3.709zm-8.953 8.297a4.622 4.622 0 01-4.623-4.623 4.622 4.622 0 114.623 4.623zm4.807-8.339a1.077 1.077 0 110-2.155 1.077 1.077 0 010 2.155z" fill="#fff"/><path d="M8.997 12.001a3.003 3.003 0 100-6.006 3.003 3.003 0 000 6.006z" fill="#fff"/></svg>