<svg width="579" height="377" fill="none" xmlns="http://www.w3.org/2000/svg"><path d="M277.8 2.8c-2.133 2.133-1.867 3.467 1.467 7.467 1.733 2 1.333 2.266-4.534 3.066-34.666 4.8-66.133 25.734-84.133 55.734-26.267 43.866-19.6 100 16.267 138 8.8 9.333 21.2 18 34.533 24.266 17.733 8.267 25.6 9.867 47.6 10 21.733 0 28.133-1.2 45.333-8.533 38-16.267 64-50.533 69.467-91.6 1.6-12.267 1.067-17.2-2.133-18.4-4.4-1.6-5.734.533-6.667 10.933-3.067 32.667-16.933 58.267-42 77.6-31.333 24.267-80.667 27.867-114.533 8.4-25.467-14.666-43.2-37.2-51.067-65.066-4.267-15.2-4.267-39.734 0-54.4 8-27.734 24.8-49.867 48.4-63.734 18.667-10.8 56.8-20 42.267-10.133-2.534 1.6-2.8 2.4-1.6 4.533 2.666 4.267 5.866 3.467 16-4.266 9.6-7.467 10.8-9.067 8.8-12.134-.934-1.466-19.467-13.866-20.8-13.866-.267 0-1.6.933-2.667 2.133zm46.133 16.8c-2.266 2.267-2 7.067.4 9.067 1.6 1.333 2.8 1.333 5.334.266C335 26.4 333.533 18 327.667 18c-1.2 0-2.8.667-3.734 1.6zm24 13.333c-3.6 3.6-.8 9.067 4.534 9.067 4.4 0 6.533-3.333 4.8-7.333-1.734-3.6-6.534-4.534-9.334-1.734zM369 51.867c-.8 1.066-1.333 3.333-1.067 5.066C368.2 59.467 369.133 60 373 60s4.8-.533 5.067-3.067C378.6 53.2 376.2 50 373 50c-1.333 0-3.067.933-4 1.867zm14.933 21.066c-4.4 4.4.8 12.134 6.267 9.2 3.6-2 4.267-4.666 2-8-2.267-3.066-5.867-3.6-8.267-1.2z" fill="#6C43BC"/><path d="M320.6 91.6l-19.733 6.667 6.4 4.266c3.466 2.267 6.4 4.534 6.4 5.067 0 .933-17.867 19.733-18.8 19.733-.4 0-6-3.6-12.534-8.133-6.533-4.533-12.4-7.733-13.066-7.333-1.067.666-27.467 30.933-35.734 40.8-1.333 1.733-.533 2.933 4.8 7.6l6.267 5.6 12.533-14.134c6.934-7.866 13.2-15.066 14-16.133 1.2-1.6 3.467-.533 13.867 6.4l12.533 8.4 16.134-16.8 16-16.8 7.333 4.533c4 2.4 7.467 4.4 7.6 4.267.133-.267-.267-7.6-.933-16.267-.667-8.8-1.334-18-1.334-20.4 0-2.266-.4-4.266-.933-4.133-.667 0-10 3.067-20.8 6.8zm71.067 5.733c-1.334 1.6-1.334 2.8-.267 5.334 1.867 4.133 7.467 4.533 9.6.666 3.2-5.866-5.067-11.066-9.333-6z" fill="#6C43BC"/><path d="M74.733 277.733l-7.066.4v61.2h12l.266-21.466.4-21.6 7.334 21.6L95 339.333h10.667L113 317.867l7.333-21.334.4 21.467.4 21.467 6.267-.4 6.267-.4v-60l-9.6-.4-9.6-.4-6.134 19.066c-3.333 10.534-6.4 20-6.8 21.067-.533 1.067-4-7.2-7.733-18.533-7.733-22.8-7.333-22.4-19.067-21.734zm109.467 1.334c-6.4 3.066-13.467 11.066-15.2 17.6-4.933 17.866 2.8 37.066 16.933 41.866 18.4 6.267 34.134-1.733 38.267-19.6.8-3.6.8-3.6-5.6-3.6-6.133 0-6.533.267-8.133 4.667-2.134 6-6.667 9.067-13.334 8.933C187 328.8 181 321.333 181 308.8c0-12.667 5.2-20 15.067-21.067 4.8-.533 6.4-.133 10 2.934 2.4 2 4.266 4.4 4.266 5.466 0 1.334 1.867 1.867 6.8 1.867h6.934l-.934-4c-.933-5.2-4.266-9.467-10-13.467-6.266-4.4-21.066-5.066-28.933-1.466zm104.267-1.2c-.4.533 4.4 9.333 10.533 19.466L310.333 316v23.333h13.334v-24.266l10.666-17.734C340.2 287.6 345 279.067 345 278.4c0-.667-1.333-1.2-2.933-.933-1.734.133-4.934.4-7.2.4-3.6.133-4.667 1.2-10.534 11.466-3.6 6.267-7.066 11.334-7.6 11.334-.4 0-3.733-5.067-7.333-11.334-6-10.666-6.667-11.2-11.067-11.333-2.533-.133-5.733-.4-6.933-.667-1.333-.266-2.667 0-2.933.534zm187.6 1.6c-10.267 5.066-15.734 15.466-15.734 29.866.134 14.4 6.934 24.934 19.2 29.334 15.2 5.333 30.667-.8 38.267-15.334 3.2-6 3.2-22.4.133-29.466-2.666-6.134-9.466-13.067-15.2-15.334-6.666-2.8-20-2.4-26.666.934zm22.4 10.133c10.666 6.4 11.333 29.733.933 36.933-4.8 3.334-14.8 2.8-19.467-1.2-6.933-5.733-8.533-20.266-3.466-30.266 3.733-7.2 14.533-9.867 22-5.467zm42.8-12c-4.134.8-12.267 9.067-12.534 12.8-.4 6.667.667 11.067 3.334 14 4 4.267 6.8 5.6 17.333 8.4 11.333 2.933 15.6 5.6 15.6 9.867 0 4.533-4.8 7.333-12.4 7.333-5.067 0-7.067-.667-9.6-3.333-1.867-1.734-3.333-4.134-3.333-5.334 0-1.466-1.6-2-6.8-2h-6.8l.8 4.267C529 334.4 537.933 340 553 340c11.467 0 17.333-2.667 22.267-10 4.4-6.4 4.133-13.467-.934-19.2-4-4.533-8-6.267-22.933-10.133-10.933-2.8-13.6-10.134-4.8-13.2 6.533-2.267 15.733 1.333 15.733 6.133 0 1.2 2 1.733 6.667 1.733 5.867 0 6.667-.4 6.667-2.8 0-2.933-2.134-7.466-4.8-10.266-4.8-4.667-18.267-6.8-29.6-4.667zM15.133 302.267c-5.066 13.466-10.266 27.2-11.6 30.666L1 339.333h14.133l2-6.4 2-6.266 12-.4 12-.4 2 6.4 2 6.4 6.934.4c3.866.266 6.933-.134 6.933-.667-.133-.533-5.067-14.267-11.2-30.4l-11.067-29.333-7.2-.4-7.2-.4-9.2 24.4zm20.934 3.333l3.466 9.733H31.4c-5.867 0-7.867-.4-7.467-1.733.4-.8 2-5.733 3.734-10.667 1.6-5.066 3.466-8.666 4-8 .533.534 2.533 5.467 4.4 10.667zm198.266 3.067v30.666h13.334v-24h9.866c12 0 12.8.8 14.8 13.867l1.467 9.467 6.267.4 6.4.4-.8-8.4c-1.2-11.067-2.934-16.667-6.134-18.934C277 310.4 277 310.267 281 306.267c5.2-5.334 6-14.667 1.733-21.2-4-6-8.133-7.067-29.066-7.067h-19.334v30.667zm33.334-19.6c2.533 1.333 3.466 2.8 3.733 7.066.533 7.334-1.6 8.8-13.333 9.067l-9.734.133-.4-7.2c-.266-3.866-.133-8 .267-8.933.933-2.4 14.8-2.533 19.467-.133zm84 19.6v30.666H365v-22.666h10c5.6 0 12-.8 14.533-1.867 12.934-5.333 15.067-22.933 4.134-32.667l-4.8-4.133h-37.2v30.667zm33.466-17.867c3.2 2.933 3.334 10 .267 12.933-1.6 1.334-5.467 2.134-11.067 2.4l-8.666.4-.4-7.733c-.667-11.6-.267-12 9.2-11.067 4.933.4 9.066 1.6 10.666 3.067zM405 283.333v5.2l9.067.4 8.933.4.4 24.934.267 25.066H437v-50.666h18.667V278H405v5.333z" fill="#000"/><path d="M63.133 359.467c-7.866 6.133-.8 19.466 8.667 16.533 4.133-1.333 2.8-2.8-2-2.267-3.733.4-4.933-.133-6.933-3.066-2.134-3.334-2.134-4-.4-7.2 1.333-2.4 3.2-3.467 5.866-3.734 6.534-.266 6.8-.4 4.667-1.733-3.067-2-6-1.6-9.867 1.467zm136.534-1.067c-1.734.933-3.867 3.333-4.667 5.333-2.667 8 6.533 15.6 13.333 11.067 4.667-3.067 4.4-7.467-.266-7.333-2.267.133-2.8.4-1.334.8 3.467.933 2.667 4.266-1.333 5.2-4.667 1.2-7.6-.934-8.133-5.734-.534-5.333 2.933-8.8 8-8.133 4 .667 5.066-.8 1.6-2.133-2.8-1.067-3.334-1.067-7.2.933zm92-.8c-7.467 2.8-9.067 11.6-3.2 16.267 2 1.6 4.533 2.8 5.866 2.8 2.4 0 8-5.334 8-7.6 0-2.134-3.866-3.2-6.4-1.734-2 1.067-1.866 1.2.8 1.334 3.2 0 3.734 1.333 1.334 3.733-3.6 3.6-11.734 0-11.734-5.2 0-3.867 4.134-8 7.867-7.867 5.333.4 6.267.134 4.133-1.333-2.133-1.467-3.6-1.467-6.666-.4zm57.333 0c-2.8 1.067-6.667 6-6.667 8.8 0 5.867 7.334 11.467 12.534 9.467 3.466-1.334 2.4-2.8-1.6-2.134-4.534.667-8.267-2.533-8.267-7.066 0-4.534 3.733-7.734 8.267-7.067 4 .667 5.066-.8 1.6-2.133-2.4-.934-3.067-.934-5.867.133zm27.467 0c-1.334 1.467-.934 17.733.533 17.733.8 0 1.333-1.2 1.333-2.533 0-4.4 2.934-4.8 6-1.067 3.467 4.4 5.467 4.8 2.667.4-1.867-2.8-1.867-3.333 0-4.8 2.4-2 2.667-5.866.4-7.6-2.267-1.733-9.867-3.2-10.933-2.133zm9.2 5.733c0 2.667-.8 3.467-3.6 3.734-3.334.4-3.734 0-3.734-3.734 0-3.733.4-4.133 3.734-3.733 2.8.267 3.6 1.067 3.6 3.733zm58.4-5.6c-2.8.4-3.067 1.2-3.067 9.067 0 4.8.533 8.533 1.333 8.533.8 0 1.334-1.466 1.334-3.333 0-1.867.4-3.2 1.066-3.2 6.4 1.067 10.934-3.2 8.4-8-1.466-2.8-4.533-3.733-9.066-3.067zm6.933 5.6c0 2.667-.8 3.467-3.6 3.734-3.333.4-3.733 0-3.733-3.734 0-3.733.4-4.133 3.733-3.733 2.8.267 3.6 1.067 3.6 3.733zm21.2-5.066c-.4.533.267 1.066 1.333 1.066 1.734 0 2.134 1.6 2.134 8 0 4.4.533 8 1.333 8 .8 0 1.333-3.6 1.333-8 0-7.333.267-8 2.934-8 4.666 0 1.6-1.6-3.6-2-2.667-.133-5.067.267-5.467.934zm34.533-.267c-9.066 3.733-6.4 17.733 3.334 17.733 8.933 0 12.666-9.333 6.266-15.733-3.466-3.6-4.933-3.867-9.6-2zm8.934 3.333c3.866 4.667.933 12.667-4.8 12.667-3.867 0-7.2-3.333-7.2-7.333 0-6.267 8.266-9.867 12-5.334zm-422.4 5.334c0 6 .4 7.866.933 5.333.667-3.467 1.333-4 5.467-4 4.133 0 4.666.4 5.066 3.6.8 6.4 2.267 4.133 2-2.933-.266-10-.666-11.734-1.6-7.334-.666 3.467-1.333 4-5.466 4-4.134 0-4.8-.533-5.467-4-.533-2.533-.933-.666-.933 5.334zm35.466-.267c-1.866 4.533-3.2 8.533-2.8 8.933.267.4 1.067-.266 1.734-1.466 1.733-2.934 10.266-3.067 11.866-.134.667 1.2 1.6 1.867 2 1.467 1.2-1.2-6.133-17.2-7.733-17.2-.8 0-3.067 3.733-5.067 8.4zm8-.133c1.467 3.6 1.334 3.733-2.4 3.733-4.4 0-4.8-.933-2.4-6 1.6-3.733 2.4-3.333 4.8 2.267zm24.267.666c.133 7.067.4 8.534 1.467 6.667.8-1.467 1.2-4 .8-5.733-.934-5.334 1.2-4.8 5.866 1.466 2.534 3.2 4.934 6 5.6 6 .534 0 .8-4 .667-9.066-.133-7.467-.267-7.867-.667-2.667-.266 3.6-1.066 6.4-1.733 6.4s-3.067-2.667-5.467-6c-2.4-3.333-4.8-6-5.466-6-.534 0-1.067 4-1.067 8.933zm69.333-.266c0 4.933.534 8.666 1.334 8.666S233 371.6 233 366.667c0-4.934-.533-8.667-1.333-8.667-.8 0-1.334 3.733-1.334 8.667zm20 0c0 4.933.534 8.666 1.334 8.666s1.333-2.666 1.333-6c0-3.333.4-6 1.067-6 .533 0 2.933 2.8 5.466 6 2.4 3.334 4.934 6 5.6 6 .667 0 1.2-3.866 1.2-8.666 0-4.934-.533-8.667-1.333-8.667-.667 0-1.333 3.067-1.333 6.8v6.8l-5.334-6.8c-2.933-3.733-6-6.8-6.666-6.8-.8 0-1.334 3.867-1.334 8.667zm160.134-4.4c1.733 2.266 3.466 6.266 4 8.933.933 4.667.933 4.667 1.066.667 0-2.134 1.6-6 3.467-8.534 4.133-5.6 3.333-6.933-1.067-1.866l-3.2 3.733-2.4-3.6c-1.2-2-2.933-3.6-3.6-3.6-.666 0 .134 1.867 1.734 4.267z" fill="#6C43BC"/></svg>