<svg width="20" height="20" fill="none" xmlns="http://www.w3.org/2000/svg"><g clip-path="url(#clip0_3_9)"><path fill-rule="evenodd" clip-rule="evenodd" d="M17.052 2.937a9.902 9.902 0 00-7.03-2.898C4.544.039.085 4.47.083 9.919c0 1.742.457 3.441 1.327 4.94L0 19.978l5.269-1.374a9.97 9.97 0 004.75 1.202h.003c5.478 0 9.937-4.432 9.939-9.88a9.79 9.79 0 00-2.909-6.99zm-7.03 15.202h-.003a8.286 8.286 0 01-4.205-1.145l-.301-.178-3.127.815.835-3.03-.197-.311a8.156 8.156 0 01-1.263-4.37c.002-4.528 3.708-8.212 8.265-8.212a8.23 8.23 0 015.84 2.408 8.138 8.138 0 012.417 5.81c-.002 4.528-3.708 8.212-8.26 8.212zm4.531-6.15c-.248-.124-1.469-.721-1.697-.804-.227-.082-.393-.123-.558.124-.165.247-.642.804-.786.968-.145.165-.29.185-.539.061-.248-.123-1.048-.384-1.997-1.225-.738-.654-1.236-1.463-1.381-1.71-.145-.247-.015-.38.108-.504.112-.11.249-.288.373-.432.125-.144.165-.247.248-.412.083-.165.042-.309-.02-.432-.062-.124-.559-1.34-.766-1.833-.202-.482-.406-.416-.558-.424a8.991 8.991 0 00-.476-.009.914.914 0 00-.663.309c-.228.247-.87.845-.87 2.06 0 1.214.89 2.389 1.015 2.554.124.164 1.751 2.658 4.242 3.728.593.254 1.055.406 1.416.52.595.188 1.136.161 1.564.098.477-.071 1.47-.598 1.676-1.174.207-.577.207-1.071.145-1.174-.062-.103-.228-.165-.476-.289z" fill="#fff"/></g><defs><clipPath id="clip0_3_9"><path fill="#fff" d="M0 0h20v20H0z"/></clipPath></defs></svg>